
<svg width="263px" height="58px" viewBox="0 0 263 58" version="1.1" xmlns="http://www.w3.org/2000/svg" xmlns:xlink="http://www.w3.org/1999/xlink">
    <g id="Page-1" stroke="none" stroke-width="1" fill="none" fill-rule="evenodd">
        <g id="1-Home" transform="translate(-176.000000, -85.000000)" fill="#FFFFFF">
            <g id="Group-1394" transform="translate(0.000000, 21.154200)">
                <g id="Group-7" transform="translate(176.428963, 64.700900)">
                    <g id="Group-6" transform="translate(79.364337, 10.190600)">
                        <g id="Group-5">
                            <g id="Group-2" transform="translate(31.360700, 0.000000)">
                                <path d="M4.241,0.4192 C4.028,1.0232 3.535,2.5392 2.765,4.9692 C2.297,6.5152 1.888,8.0182 1.541,9.4762 L1.414,10.0052 L0,10.0052 C0.257,9.2792 0.803,7.6002 1.639,4.9692 C2.164,3.2322 2.56,1.7142 2.827,0.4192 L4.241,0.4192 Z" id="Fill-1328"></path>
                                <path d="M11.6004,4.9695 C11.5224,5.3575 11.3124,6.1475 10.9654,7.3405 C10.6184,8.5325 10.3864,9.4205 10.2704,10.0055 L9.0114,10.0795 C9.0554,9.8635 9.2644,9.1685 9.6394,7.9955 C10.0144,6.8225 10.2594,5.9335 10.3804,5.3305 C10.4944,4.7565 10.4674,4.3575 10.3054,4.1335 C10.1394,3.9105 9.8334,3.7985 9.3884,3.7985 C8.8524,3.7985 8.2684,4.1485 7.6364,4.8475 C7.0054,5.5475 6.5644,6.3195 6.3134,7.1635 C5.9874,8.2625 5.7164,9.2105 5.5004,10.0055 L4.2844,10.0795 C5.1334,7.5365 5.6434,5.8195 5.8214,4.9255 C5.9224,4.4095 6.0084,3.7815 6.0774,3.0405 L7.3584,2.8555 C7.3024,3.2885 7.2034,3.8605 7.0614,4.5715 L7.1214,4.5715 C7.9954,3.3795 8.9924,2.7825 10.1114,2.7825 C11.3924,2.7825 11.8884,3.5115 11.6004,4.9695" id="Fill-1330"></path>
                                <path d="M18.9041,2.9593 L18.3611,4.0263 C17.9071,3.8463 17.3591,3.7543 16.7211,3.7543 C15.7691,3.7543 15.2311,4.0743 15.1041,4.7123 C15.0571,4.9423 15.1111,5.1363 15.2601,5.2933 C15.4111,5.4503 15.7201,5.6373 16.1881,5.8533 C17.3281,6.3883 17.8181,7.0683 17.6541,7.8933 C17.3551,9.4043 16.2531,10.1603 14.3481,10.1603 C13.5781,10.1603 12.8791,10.0943 12.2521,9.9613 L12.8051,8.8793 C13.3421,9.0953 13.9531,9.2033 14.6401,9.2033 C15.7461,9.2033 16.3611,8.8863 16.4861,8.2533 C16.5731,7.8123 16.2141,7.3973 15.4061,7.0093 C14.2591,6.4593 13.7661,5.7793 13.9261,4.9693 C14.0661,4.2683 14.4291,3.7303 15.0191,3.3573 C15.6081,2.9843 16.2751,2.7983 17.0211,2.7983 C17.8261,2.7983 18.4531,2.8513 18.9041,2.9593" id="Fill-1332"></path>
                                <path d="M23.8553,8.6585 L23.4783,9.6375 C22.8933,9.9865 22.3293,10.1595 21.7843,10.1595 C21.1113,10.1595 20.6763,9.9945 20.4753,9.6625 C20.2773,9.3315 20.2493,8.8035 20.3923,8.0765 C20.5123,7.4685 20.9133,6.1555 21.5933,4.1375 C21.3333,4.1375 20.9303,4.1525 20.3843,4.1815 L20.7493,3.1145 C21.2063,3.1425 21.6053,3.1585 21.9493,3.1585 C22.0173,2.9565 22.2623,2.2575 22.6803,1.0595 L23.8093,0.9415 C23.6213,1.4425 23.3593,2.1805 23.0243,3.1585 C23.4803,3.1585 24.1373,3.1345 24.9973,3.0835 L24.6323,4.1815 C23.8283,4.1525 23.1713,4.1375 22.6603,4.1375 C22.0793,5.7865 21.7163,6.9685 21.5753,7.6795 C21.4653,8.2385 21.4613,8.6215 21.5613,8.8265 C21.6623,9.0335 21.8843,9.1365 22.2233,9.1365 C22.7143,9.1365 23.2583,8.9765 23.8553,8.6585" id="Fill-1334"></path>
                                <path d="M29.8206,0.699 C29.7626,0.983 29.6226,1.227 29.3966,1.428 C29.1696,1.629 28.9136,1.729 28.6296,1.729 C28.1836,1.729 28.0076,1.492 28.1006,1.015 C28.1576,0.731 28.2986,0.491 28.5236,0.295 C28.7486,0.097 29.0046,0 29.2886,0 C29.7356,0 29.9136,0.232 29.8206,0.699 L29.8206,0.699 Z M28.8596,2.87 C28.7946,3.224 28.6546,3.712 28.4416,4.332 C28.2286,4.954 27.9816,5.722 27.7016,6.64 C27.4886,7.338 27.1866,8.46 26.7916,10.006 L25.4946,10.079 C25.7616,9.304 26.1416,8.158 26.6326,6.64 C26.9306,5.659 27.1626,4.753 27.3266,3.925 C27.3956,3.575 27.4416,3.291 27.4656,3.069 L28.8596,2.87 Z" id="Fill-1336"></path>
                                <path d="M34.0906,8.6585 L33.7116,9.6375 C33.1256,9.9865 32.5636,10.1595 32.0176,10.1595 C31.3456,10.1595 30.9086,9.9945 30.7096,9.6625 C30.5106,9.3315 30.4826,8.8035 30.6266,8.0765 C30.7466,7.4685 31.1466,6.1555 31.8256,4.1375 C31.5666,4.1375 31.1626,4.1525 30.6176,4.1815 L30.9836,3.1145 C31.4396,3.1425 31.8386,3.1585 32.1816,3.1585 C32.2516,2.9565 32.4956,2.2575 32.9146,1.0595 L34.0416,0.9415 C33.8546,1.4425 33.5916,2.1805 33.2566,3.1585 C33.7136,3.1585 34.3706,3.1345 35.2306,3.0835 L34.8646,4.1815 C34.0616,4.1525 33.4046,4.1375 32.8936,4.1375 C32.3116,5.7865 31.9516,6.9685 31.8086,7.6795 C31.6976,8.2385 31.6956,8.6215 31.7946,8.8265 C31.8976,9.0335 32.1166,9.1365 32.4556,9.1365 C32.9466,9.1365 33.4916,8.9765 34.0906,8.6585" id="Fill-1338"></path>
                                <path d="M43.6307,2.8636 C42.7467,5.5926 42.2157,7.4046 42.0387,8.2976 C41.9377,8.8126 41.8647,9.3676 41.8267,9.9616 L40.5467,10.1456 C40.6017,9.7146 40.7007,9.1426 40.8417,8.4306 L40.7827,8.4306 C39.9077,9.6226 38.9117,10.2186 37.7927,10.2186 C36.5107,10.2186 36.0147,9.4906 36.3037,8.0326 C36.3807,7.6446 36.5927,6.8566 36.9377,5.6686 C37.2827,4.4806 37.5127,3.5946 37.6307,3.0106 L38.9317,2.8636 C38.8897,3.0746 38.6757,3.7786 38.2867,4.9726 C37.8977,6.1686 37.6437,7.0686 37.5237,7.6716 C37.4097,8.2456 37.4347,8.6446 37.5997,8.8676 C37.7637,9.0916 38.0697,9.2026 38.5167,9.2026 C39.0517,9.2026 39.6347,8.8526 40.2667,8.1506 C40.8997,7.4486 41.3407,6.6776 41.5907,5.8386 C41.9457,4.6406 42.1907,3.6976 42.3277,3.0106 L43.6307,2.8636 Z" id="Fill-1340"></path>
                                <path d="M48.785,8.6585 L48.406,9.6375 C47.821,9.9865 47.258,10.1595 46.713,10.1595 C46.04,10.1595 45.604,9.9945 45.405,9.6625 C45.205,9.3315 45.177,8.8035 45.322,8.0765 C45.442,7.4685 45.842,6.1555 46.521,4.1375 C46.26,4.1375 45.858,4.1525 45.312,4.1815 L45.678,3.1145 C46.134,3.1425 46.533,3.1585 46.876,3.1585 C46.947,2.9565 47.191,2.2575 47.609,1.0595 L48.737,0.9415 C48.551,1.4425 48.288,2.1805 47.952,3.1585 C48.41,3.1585 49.066,3.1345 49.925,3.0835 L49.56,4.1815 C48.756,4.1525 48.1,4.1375 47.589,4.1375 C47.007,5.7865 46.645,6.9685 46.504,7.6795 C46.393,8.2385 46.389,8.6215 46.49,8.8265 C46.593,9.0335 46.812,9.1365 47.15,9.1365 C47.642,9.1365 48.187,8.9765 48.785,8.6585" id="Fill-1342"></path>
                                <path d="M56.6077,6.1106 C56.7437,5.4236 56.7037,4.8356 56.4897,4.3476 C56.2727,3.8586 55.8737,3.6146 55.2837,3.6146 C54.5517,3.6146 53.8987,3.9566 53.3277,4.6416 C52.7547,5.3266 52.3897,6.0686 52.2317,6.8686 C52.0937,7.5556 52.1367,8.1446 52.3567,8.6326 C52.5757,9.1206 52.9827,9.3646 53.5767,9.3646 C54.2987,9.3646 54.9447,9.0226 55.5147,8.3376 C56.0847,7.6526 56.4477,6.9106 56.6077,6.1106 M57.8997,5.8976 C57.6677,7.0806 57.1057,8.1096 56.2187,8.9826 C55.3307,9.8556 54.3037,10.2926 53.1357,10.2926 C52.3657,10.2926 51.7627,9.9826 51.3287,9.3606 C50.8937,8.7406 50.7747,7.9366 50.9707,6.9506 C51.1997,5.7866 51.7547,4.7856 52.6327,3.9456 C53.5107,3.1066 54.5407,2.6866 55.7247,2.6866 C56.5037,2.6866 57.1117,2.9766 57.5437,3.5556 C57.9777,4.1346 58.0967,4.9156 57.8997,5.8976" id="Fill-1344"></path>
                            </g>
                            <g id="Group-3" transform="translate(0.000000, 36.882600)">
                                <path d="M2.193,0.793 C2.107,1.359 1.927,2.779 1.656,5.055 C1.504,6.503 1.401,7.91 1.346,9.276 L1.325,9.772 L-2.84217094e-14,9.772 C0.107,9.092 0.306,7.52 0.601,5.055 C0.771,3.427 0.86,2.007 0.869,0.793 L2.193,0.793 Z" id="Fill-1346"></path>
                                <path d="M14.3044,6.083 C14.3044,4.666 13.8064,3.958 12.8084,3.958 C12.3074,3.958 11.8194,4.273 11.3434,4.904 C10.8674,5.534 10.5924,6.269 10.5184,7.11 L10.3814,8.676 C10.8274,8.942 11.2594,9.076 11.6784,9.076 C12.5514,9.076 13.2084,8.798 13.6474,8.241 C14.0854,7.685 14.3044,6.966 14.3044,6.083 M15.4844,5.668 C15.4844,6.91 15.1694,7.936 14.5364,8.745 C13.9044,9.554 13.0484,9.958 11.9674,9.958 C11.2364,9.958 10.6884,9.807 10.3254,9.503 L10.2704,9.503 L10.0844,9.772 L9.1114,9.841 C9.1724,9.418 9.3714,7.681 9.7114,4.627 C9.9054,2.789 10.0014,1.27 10.0014,0.069 L11.3124,0 C11.3124,0.165 11.2704,0.517 11.1864,1.056 C11.0684,1.851 10.9584,2.751 10.8564,3.759 C10.8344,3.989 10.7944,4.296 10.7404,4.683 L10.7944,4.683 C11.4024,3.566 12.2344,3.007 13.2914,3.007 C13.9444,3.007 14.4724,3.248 14.8764,3.728 C15.2824,4.208 15.4844,4.855 15.4844,5.668" id="Fill-1348"></path>
                                <path d="M26.9748,4.5518 C26.9748,4.3078 26.8628,4.1208 26.6378,3.9898 C26.4128,3.8588 26.1218,3.7938 25.7688,3.7938 C25.2668,3.7938 24.8008,3.9578 24.3708,4.2898 C23.9418,4.6208 23.6628,5.1288 23.5338,5.8138 C24.9458,5.7858 25.9128,5.6368 26.4378,5.3658 C26.7958,5.1818 26.9748,4.9098 26.9748,4.5518 M28.0728,4.5248 C28.0728,5.1448 27.7848,5.6158 27.2098,5.9378 C26.4788,6.3518 25.2338,6.5748 23.4718,6.6068 C23.4718,7.4348 23.6168,8.0358 23.9038,8.4108 C24.1898,8.7848 24.6738,8.9718 25.3548,8.9718 C26.0208,8.9718 26.7478,8.7378 27.5358,8.2688 L27.3608,9.2898 C26.7408,9.7358 25.9738,9.9588 25.0578,9.9588 C24.1208,9.9588 23.4298,9.6768 22.9868,9.1138 C22.5418,8.5508 22.3198,7.8368 22.3198,6.9718 C22.3198,5.6988 22.6918,4.7038 23.4348,3.9898 C24.1768,3.2748 25.0328,2.9178 26.0028,2.9178 C26.5918,2.9178 27.0848,3.0598 27.4788,3.3448 C27.8748,3.6298 28.0728,4.0228 28.0728,4.5248" id="Fill-1350"></path>
                                <path d="M39.3424,3.1446 L38.9284,4.2416 C38.6064,4.1496 38.2984,4.1036 38.0044,4.1036 C36.9514,4.1036 36.3644,4.6466 36.2454,5.7306 C36.0744,7.3036 35.9534,8.6506 35.8804,9.7716 L34.7554,9.8416 C35.0784,7.4596 35.2384,5.8506 35.2384,5.0136 C35.2384,4.5306 35.2004,3.9426 35.1284,3.2486 L36.2944,3.0756 C36.3314,3.4526 36.3484,3.7906 36.3484,4.0896 L36.4044,4.0896 C36.9564,3.3596 37.5474,2.9936 38.1754,2.9936 C38.5074,2.9936 38.8964,3.0446 39.3424,3.1446" id="Fill-1352"></path>
                                <path d="M50.5993,6.1245 C50.5993,5.4795 50.4533,4.9295 50.1613,4.4725 C49.8693,4.0145 49.4463,3.7865 48.8953,3.7865 C48.2093,3.7865 47.6623,4.1065 47.2543,4.7485 C46.8453,5.3895 46.6403,6.0845 46.6403,6.8345 C46.6403,7.4785 46.7873,8.0285 47.0843,8.4865 C47.3823,8.9435 47.8083,9.1725 48.3653,9.1725 C49.0403,9.1725 49.5813,8.8515 49.9863,8.2105 C50.3943,7.5685 50.5993,6.8735 50.5993,6.1245 M51.7713,5.9235 C51.7713,7.0325 51.4363,7.9955 50.7663,8.8135 C50.0993,9.6325 49.2163,10.0415 48.1213,10.0415 C47.4013,10.0415 46.7803,9.7505 46.2573,9.1685 C45.7353,8.5875 45.4743,7.8345 45.4743,6.9105 C45.4743,5.8205 45.8083,4.8825 46.4743,4.0965 C47.1403,3.3105 48.0283,2.9175 49.1353,2.9175 C49.8683,2.9175 50.4903,3.1875 51.0023,3.7315 C51.5143,4.2725 51.7713,5.0045 51.7713,5.9235" id="Fill-1354"></path>
                                <path d="M62.924,4.0073 C61.757,4.0303 60.904,4.3493 60.369,4.9623 C59.833,5.5763 59.565,6.3883 59.565,7.4003 C59.565,8.4483 59.915,8.9723 60.614,8.9723 C61.102,8.9723 61.549,8.6213 61.959,7.9203 C62.368,7.2193 62.622,6.5853 62.721,6.0173 C62.82,5.4493 62.886,4.7793 62.924,4.0073 L62.924,4.0073 Z M64.18,2.9103 C63.761,5.2453 63.552,6.9443 63.552,8.0063 C63.552,8.4893 63.593,9.0553 63.676,9.7033 L62.51,9.8753 C62.483,9.4673 62.468,8.9533 62.468,8.3383 L62.407,8.3383 C61.822,9.4003 61.053,9.9303 60.096,9.9303 C59.54,9.9303 59.117,9.7093 58.824,9.2653 C58.533,8.8213 58.385,8.2433 58.385,7.5303 C58.385,6.3813 58.789,5.3813 59.593,4.5303 C60.398,3.6803 61.555,3.2463 63.061,3.2273 L63.366,3.0133 L64.18,2.9103 Z" id="Fill-1356"></path>
                                <path d="M80.9396,5.0552 C80.9396,5.5692 80.8876,6.3562 80.7846,7.4142 C80.6816,8.4712 80.6286,9.2572 80.6286,9.7722 L79.4626,9.8412 C79.4626,9.4872 79.5286,8.7722 79.6586,7.6962 C79.7916,6.6202 79.8556,5.8762 79.8556,5.4622 C79.8556,4.9152 79.7766,4.5282 79.6186,4.3002 C79.4606,4.0732 79.2086,3.9582 78.8636,3.9582 C78.2836,3.9582 77.7856,4.2622 77.3706,4.8682 C76.9536,5.4752 76.7026,6.2232 76.6156,7.1102 C76.5046,8.2312 76.4506,9.1192 76.4506,9.7722 L75.2846,9.8412 C75.2846,9.5342 75.3516,8.8262 75.4846,7.7172 C75.6166,6.6092 75.6836,5.8572 75.6836,5.4622 C75.6836,4.9152 75.6046,4.5282 75.4466,4.3002 C75.2876,4.0732 75.0356,3.9582 74.6906,3.9582 C74.1356,3.9582 73.6426,4.2772 73.2146,4.9142 C72.7886,5.5502 72.5286,6.2822 72.4416,7.1102 C72.3326,8.2232 72.2536,9.1102 72.2076,9.7722 L71.0846,9.8412 C71.4046,7.4602 71.5676,5.8502 71.5676,5.0132 C71.5676,4.5312 71.5296,3.9422 71.4566,3.2482 L72.6216,3.0762 C72.6496,3.5262 72.6626,4.0612 72.6626,4.6832 L72.7176,4.6832 C73.2516,3.5662 74.0266,3.0072 75.0426,3.0072 C75.5896,3.0072 76.0016,3.1642 76.2746,3.4782 C76.5536,3.7942 76.6886,4.1962 76.6836,4.6832 L76.7456,4.6832 C77.3146,3.5662 78.1116,3.0072 79.1316,3.0072 C80.3356,3.0072 80.9396,3.6892 80.9396,5.0552" id="Fill-1358"></path>
                                <path d="M92.6574,4.5518 C92.6574,4.3078 92.5444,4.1208 92.3184,3.9898 C92.0944,3.8588 91.8034,3.7938 91.4514,3.7938 C90.9494,3.7938 90.4834,3.9578 90.0534,4.2898 C89.6244,4.6208 89.3444,5.1288 89.2164,5.8138 C90.6274,5.7858 91.5954,5.6368 92.1204,5.3658 C92.4784,5.1818 92.6574,4.9098 92.6574,4.5518 M93.7534,4.5248 C93.7534,5.1448 93.4654,5.6158 92.8924,5.9378 C92.1604,6.3518 90.9144,6.5748 89.1544,6.6068 C89.1544,7.4348 89.2984,8.0358 89.5854,8.4108 C89.8714,8.7848 90.3564,8.9718 91.0364,8.9718 C91.7034,8.9718 92.4294,8.7378 93.2174,8.2688 L93.0424,9.2898 C92.4234,9.7358 91.6554,9.9588 90.7404,9.9588 C89.8024,9.9588 89.1114,9.6768 88.6684,9.1138 C88.2234,8.5508 88.0024,7.8368 88.0024,6.9718 C88.0024,5.6988 88.3744,4.7038 89.1164,3.9898 C89.8574,3.2748 90.7154,2.9178 91.6854,2.9178 C92.2724,2.9178 92.7664,3.0598 93.1604,3.3448 C93.5564,3.6298 93.7534,4.0228 93.7534,4.5248" id="Fill-1360"></path>
                                <path d="M105.0246,3.1446 L104.6096,4.2416 C104.2886,4.1496 103.9806,4.1036 103.6876,4.1036 C102.6336,4.1036 102.0476,4.6466 101.9276,5.7306 C101.7576,7.3036 101.6356,8.6506 101.5616,9.7716 L100.4376,9.8416 C100.7596,7.4596 100.9206,5.8506 100.9206,5.0136 C100.9206,4.5306 100.8836,3.9426 100.8106,3.2486 L101.9756,3.0756 C102.0126,3.4526 102.0316,3.7906 102.0316,4.0896 L102.0866,4.0896 C102.6376,3.3596 103.2296,2.9936 103.8576,2.9936 C104.1916,2.9936 104.5786,3.0446 105.0246,3.1446" id="Fill-1362"></path>
                                <path d="M113.5368,1.0557 C113.5368,1.3217 113.4478,1.5487 113.2738,1.7377 C113.0988,1.9267 112.8778,2.0207 112.6118,2.0207 C112.1938,2.0207 111.9838,1.7977 111.9838,1.3517 C111.9838,1.0847 112.0718,0.8597 112.2478,0.6757 C112.4218,0.4927 112.6418,0.3997 112.9098,0.3997 C113.3278,0.3997 113.5368,0.6187 113.5368,1.0557 L113.5368,1.0557 Z M113.0388,3.0897 C113.0438,3.4207 113.0038,3.8767 112.9188,4.4587 C112.8338,5.0407 112.7448,5.7607 112.6538,6.6207 C112.5838,7.2737 112.5068,8.3237 112.4258,9.7717 L111.2258,9.8417 C111.3308,9.1147 111.4728,8.0417 111.6528,6.6207 C111.7488,5.7017 111.7978,4.8527 111.7978,4.0757 C111.7978,3.7497 111.7888,3.4827 111.7708,3.2767 L113.0388,3.0897 Z" id="Fill-1364"></path>
                                <path d="M125.1037,3.1729 L124.8197,4.2549 C124.3797,4.1129 123.9207,4.0419 123.4467,4.0419 C122.7587,4.0419 122.2057,4.3099 121.7887,4.8449 C121.3727,5.3799 121.1647,6.0109 121.1647,6.7369 C121.1647,7.4039 121.3117,7.9439 121.6027,8.3559 C121.8947,8.7659 122.3247,8.9719 122.8957,8.9719 C123.4977,8.9719 124.1337,8.7609 124.7997,8.3379 L124.6267,9.3589 C124.1537,9.7589 123.5007,9.9589 122.6687,9.9589 C121.7857,9.9589 121.1107,9.6459 120.6417,9.0209 C120.2227,8.4739 120.0127,7.7649 120.0127,6.8969 C120.0127,5.8399 120.3567,4.9349 121.0447,4.1859 C121.7317,3.4379 122.6657,3.0619 123.8477,3.0619 C124.3687,3.0619 124.7847,3.0989 125.1037,3.1729" id="Fill-1366"></path>
                                <path d="M135.9381,4.0073 C134.7711,4.0303 133.9191,4.3493 133.3831,4.9623 C132.8481,5.5763 132.5801,6.3883 132.5801,7.4003 C132.5801,8.4483 132.9291,8.9723 133.6261,8.9723 C134.1151,8.9723 134.5641,8.6213 134.9721,7.9203 C135.3811,7.2193 135.6371,6.5853 135.7341,6.0173 C135.8341,5.4493 135.9011,4.7793 135.9381,4.0073 L135.9381,4.0073 Z M137.1931,2.9103 C136.7741,5.2453 136.5651,6.9443 136.5651,8.0063 C136.5651,8.4893 136.6071,9.0553 136.6891,9.7033 L135.5251,9.8753 C135.4981,9.4673 135.4831,8.9533 135.4831,8.3383 L135.4211,8.3383 C134.8371,9.4003 134.0671,9.9303 133.1101,9.9303 C132.5541,9.9303 132.1301,9.7093 131.8381,9.2653 C131.5461,8.8213 131.3991,8.2433 131.3991,7.5303 C131.3991,6.3813 131.8021,5.3813 132.6071,4.5303 C133.4111,3.6803 134.5681,3.2463 136.0751,3.2273 L136.3791,3.0133 L137.1931,2.9103 Z" id="Fill-1368"></path>
                                <path d="M150.0006,5.0552 C150.0006,5.4182 149.9496,6.1592 149.8456,7.2762 C149.7426,8.3932 149.6916,9.2252 149.6916,9.7722 L148.5256,9.8412 C148.5256,9.6382 148.5926,8.9892 148.7246,7.8892 C148.8596,6.7902 148.9266,5.9592 148.9266,5.3932 C148.9266,4.8552 148.8276,4.4822 148.6316,4.2722 C148.4376,4.0632 148.1296,3.9582 147.7116,3.9582 C147.2106,3.9582 146.7286,4.2862 146.2676,4.9412 C145.8056,5.5972 145.5346,6.3192 145.4566,7.1102 C145.3546,8.1402 145.2776,9.0272 145.2226,9.7722 L144.0976,9.8412 C144.4186,7.4602 144.5806,5.8502 144.5806,5.0132 C144.5806,4.5312 144.5436,3.9422 144.4706,3.2482 L145.6346,3.0762 C145.6636,3.4802 145.6766,4.0162 145.6766,4.6832 L145.7326,4.6832 C146.3296,3.5662 147.1516,3.0072 148.2026,3.0072 C149.4026,3.0072 150.0006,3.6892 150.0006,5.0552" id="Fill-1370"></path>
                                <path d="M162.1891,6.1245 C162.1891,5.4795 162.0431,4.9295 161.7511,4.4725 C161.4601,4.0145 161.0371,3.7865 160.4851,3.7865 C159.8001,3.7865 159.2531,4.1065 158.8441,4.7485 C158.4341,5.3895 158.2291,6.0845 158.2291,6.8345 C158.2291,7.4785 158.3781,8.0285 158.6741,8.4865 C158.9721,8.9435 159.3981,9.1725 159.9551,9.1725 C160.6301,9.1725 161.1721,8.8515 161.5791,8.2105 C161.9861,7.5685 162.1891,6.8735 162.1891,6.1245 M163.3611,5.9235 C163.3611,7.0325 163.0281,7.9955 162.3571,8.8135 C161.6891,9.6325 160.8071,10.0415 159.7121,10.0415 C158.9911,10.0415 158.3701,9.7505 157.8471,9.1685 C157.3261,8.5875 157.0641,7.8345 157.0641,6.9105 C157.0641,5.8205 157.3991,4.8825 158.0651,4.0965 C158.7321,3.3105 159.6191,2.9175 160.7271,2.9175 C161.4581,2.9175 162.0801,3.1875 162.5921,3.7315 C163.1051,4.2725 163.3611,5.0045 163.3611,5.9235" id="Fill-1372"></path>
                            </g>
                            <g id="Group" transform="translate(0.654200, 5.422200)">
                                <path d="M38.188,29.556 L21.957,29.556 L26.335,17.094 C26.424,16.847 26.513,16.602 26.603,16.355 C26.694,16.11 26.739,15.851 26.739,15.577 C26.739,14.702 26.019,14.265 24.583,14.265 C23.999,14.265 23.483,14.354 23.034,14.531 C22.585,14.71 22.193,14.941 21.856,15.228 C21.518,15.516 21.249,15.822 21.047,16.15 C20.846,16.479 20.7,16.793 20.611,17.094 L16.232,29.556 L0,29.556 L10.304,0 L26.537,0 L22.428,11.806 C23.999,10.822 25.695,9.989 27.513,9.306 C29.332,8.623 31.52,8.281 34.081,8.281 C35.428,8.281 36.672,8.37 37.819,8.547 C38.964,8.725 39.974,8.997 40.848,9.366 C41.724,9.735 42.408,10.221 42.904,10.822 C43.397,11.424 43.643,12.148 43.643,12.994 C43.643,13.732 43.51,14.443 43.24,15.125 L38.188,29.556 Z" id="Fill-1374"></path>
                                <path d="M70.346,13.2197 C69.38,13.2197 68.322,13.3927 67.168,13.7367 C66.014,14.0817 64.955,14.6007 63.99,15.2887 C63.024,15.9797 62.217,16.8347 61.567,17.8547 C60.917,18.8767 60.591,20.0607 60.591,21.4117 C60.591,22.0147 60.78,22.5117 61.158,22.8997 C61.536,23.2867 62.185,23.4827 63.108,23.4827 C63.906,23.4827 64.65,23.2817 65.343,22.8787 C66.035,22.4767 66.665,21.9297 67.232,21.2397 C67.798,20.5497 68.322,19.7307 68.805,18.7817 C69.287,17.8327 69.718,16.8137 70.095,15.7197 L70.976,13.3067 C70.64,13.2497 70.431,13.2197 70.346,13.2197 L70.346,13.2197 Z M82.431,24.5597 C82.011,25.9107 81.76,26.9307 81.676,27.6207 C81.591,28.3117 81.508,28.9007 81.424,29.3887 L65.754,29.3887 C65.878,28.8707 66.077,28.2247 66.351,27.4487 C66.622,26.6727 66.843,25.9537 67.011,25.2927 C65.5,26.8737 63.874,28.0307 62.133,28.7637 C60.392,29.4967 58.262,29.8627 55.745,29.8627 C53.773,29.8627 52.084,29.6827 50.679,29.3237 C49.273,28.9657 48.107,28.4697 47.186,27.8367 C46.262,27.2037 45.581,26.4497 45.14,25.5727 C44.7,24.6967 44.48,23.7257 44.48,22.6627 C44.48,20.7077 44.909,18.9617 45.77,17.4247 C46.629,15.8867 47.772,14.5417 49.199,13.3927 C50.626,12.2427 52.293,11.2587 54.203,10.4387 C56.113,9.6197 58.115,8.9587 60.214,8.4547 C62.312,7.9527 64.44,7.5867 66.602,7.3567 C68.763,7.1257 70.828,7.0117 72.802,7.0117 C74.059,7.0117 75.414,7.0477 76.861,7.1187 C78.309,7.1907 79.714,7.2837 81.078,7.3987 C82.44,7.5137 83.689,7.6577 84.823,7.8297 C85.956,8.0027 86.837,8.1757 87.466,8.3477 L82.431,24.5597 Z" id="Fill-1376"></path>
                                <path d="M134.552,13.2197 C133.587,13.2197 132.529,13.3927 131.375,13.7367 C130.219,14.0817 129.16,14.6007 128.196,15.2887 C127.229,15.9797 126.423,16.8347 125.772,17.8547 C125.121,18.8767 124.798,20.0607 124.798,21.4117 C124.798,22.0147 124.986,22.5117 125.363,22.8997 C125.74,23.2867 126.391,23.4827 127.314,23.4827 C128.11,23.4827 128.857,23.2817 129.55,22.8787 C130.241,22.4767 130.871,21.9297 131.436,21.2397 C132.003,20.5497 132.529,19.7307 133.01,18.7817 C133.492,17.8327 133.923,16.8137 134.301,15.7197 L135.181,13.3067 C134.845,13.2497 134.636,13.2197 134.552,13.2197 L134.552,13.2197 Z M146.637,24.5597 C146.217,25.9107 145.965,26.9307 145.882,27.6207 C145.797,28.3117 145.713,28.9007 145.63,29.3887 L129.957,29.3887 C130.085,28.8707 130.283,28.2247 130.556,27.4487 C130.828,26.6727 131.049,25.9537 131.216,25.2927 C129.706,26.8737 128.081,28.0307 126.338,28.7637 C124.597,29.4967 122.469,29.8627 119.95,29.8627 C117.978,29.8627 116.289,29.6827 114.884,29.3237 C113.478,28.9657 112.313,28.4697 111.391,27.8367 C110.468,27.2037 109.786,26.4497 109.346,25.5727 C108.904,24.6967 108.684,23.7257 108.684,22.6627 C108.684,20.7077 109.115,18.9617 109.975,17.4247 C110.835,15.8867 111.98,14.5417 113.406,13.3927 C114.832,12.2427 116.499,11.2587 118.408,10.4387 C120.317,9.6197 122.32,8.9587 124.42,8.4547 C126.517,7.9527 128.646,7.5867 130.809,7.3567 C132.968,7.1257 135.033,7.0117 137.008,7.0117 C138.266,7.0117 139.619,7.0477 141.066,7.1187 C142.514,7.1907 143.919,7.2837 145.283,7.3987 C146.646,7.5137 147.894,7.6577 149.029,7.8297 C150.161,8.0027 151.042,8.1757 151.672,8.3477 L146.637,24.5597 Z" id="Fill-1378"></path>
                                <polygon id="Fill-1380" points="101.9749 29.3891 86.9149 29.3891 96.4759 9.99999993e-05 111.5349 9.99999993e-05"></polygon>
                                <polygon id="Fill-1382" points="165.5276 29.3891 150.4676 29.3891 160.0276 9.99999993e-05 175.0886 9.99999993e-05"></polygon>
                                <path d="M178.3865,2.915 L178.4065,2.915 C178.5795,2.915 178.7535,2.915 178.9305,2.915 C179.0765,2.914 179.2245,2.912 179.3725,2.893 C179.5125,2.874 179.6165,2.805 179.6745,2.672 C179.7035,2.601 179.7095,2.527 179.7025,2.451 C179.6915,2.301 179.6165,2.193 179.4765,2.134 C179.4005,2.103 179.3225,2.099 179.2425,2.098 C178.9625,2.096 178.6815,2.095 178.4035,2.095 C178.3975,2.095 178.3925,2.096 178.3865,2.097 L178.3865,2.915 Z M180.6395,4.782 L180.4375,4.782 C180.2525,4.782 180.0665,4.781 179.8815,4.783 C179.8655,4.783 179.8565,4.777 179.8475,4.765 C179.7735,4.653 179.6985,4.543 179.6235,4.432 C179.4785,4.216 179.3325,3.998 179.1835,3.783 C179.1375,3.715 179.0865,3.652 179.0315,3.592 C178.9525,3.506 178.8535,3.454 178.7365,3.445 C178.6815,3.439 178.6285,3.434 178.5745,3.432 C178.5135,3.43 178.4505,3.432 178.3865,3.432 L178.3865,4.781 L177.7355,4.781 L177.7355,1.546 L177.8325,1.546 C178.2785,1.546 178.7235,1.546 179.1685,1.547 C179.3365,1.548 179.5035,1.558 179.6705,1.585 C179.8395,1.614 179.9945,1.673 180.1185,1.798 C180.2505,1.928 180.3295,2.085 180.3605,2.266 C180.3715,2.33 180.3785,2.395 180.3785,2.459 C180.3765,2.667 180.3255,2.859 180.1915,3.024 C180.0745,3.166 179.9235,3.257 179.7495,3.311 C179.7095,3.323 179.6675,3.333 179.6215,3.344 C179.6365,3.359 179.6495,3.373 179.6635,3.388 C179.8935,3.628 180.0905,3.894 180.2635,4.177 C180.3825,4.372 180.5055,4.566 180.6265,4.759 C180.6305,4.766 180.6345,4.772 180.6395,4.782 L180.6395,4.782 Z" id="Fill-1384"></path>
                            </g>
                        </g>
                        <path d="M179.6032,5.94119748 C181.0642,5.94119748 182.2512,7.1342 182.249203,8.5922 C182.2452,10.0482 181.0582,11.2332 179.6002,11.2332 C178.1392,11.2322 176.9542,10.0432 176.955199,8.5832 C176.9572,7.1262 178.1452,5.9392 179.6032,5.94119748 M176.9962,9.8402 C177.1822,10.2272 177.4422,10.5572 177.7772,10.8292 C178.1392,11.1232 178.5502,11.3182 179.0082,11.4162 C179.1232,11.4412 179.2402,11.4512 179.3592,11.4622 C179.3592,11.4622 179.5032,11.4762 179.6022,11.4762 C179.7012,11.4762 179.8782,11.4622 179.8782,11.4622 C180.1912,11.4322 180.4932,11.3562 180.7822,11.2262 C181.1702,11.0512 181.5062,10.8022 181.7862,10.4792 C182.0902,10.1282 182.2982,9.7282 182.4102,9.2762 C182.4542,9.0972 182.4792,8.9172 182.4882,8.7332 C182.4882,8.7242 182.4902,8.7142 182.4922,8.7062 L182.4922,8.4712 C182.4902,8.4382 182.4872,8.4032 182.4842,8.3692 C182.4612,8.0672 182.3942,7.7752 182.2792,7.4962 C182.1542,7.1892 181.9802,6.9112 181.7612,6.6632 C181.4952,6.3672 181.1832,6.1352 180.8242,5.9652 C180.5922,5.8582 180.3492,5.7812 180.0952,5.7372 C179.9722,5.7162 179.8452,5.7012 179.7202,5.6992 C179.7172,5.6992 179.7122,5.6972 179.7072,5.6962 L179.4862,5.6962 C179.4542,5.6982 179.4212,5.7012 179.3882,5.7032 C178.7852,5.7502 178.2452,5.9642 177.7732,6.3472 C177.4052,6.6482 177.1272,7.0192 176.9392,7.4572 C176.8282,7.7182 176.7582,7.9892 176.7292,8.2732 C176.7212,8.3292 176.7192,8.3872 176.7152,8.4452 C176.7152,8.4512 176.7122,8.4602 176.7112,8.4662 L176.7112,8.7062 C176.7132,8.7382 176.7162,8.7692 176.7172,8.7982 C176.7422,9.1642 176.8362,9.5102 176.9962,9.8402" id="Fill-1386"></path>
                    </g>
                    <path d="M19.8967368,11.0381 C19.8967368,11.0381 17.5277368,8.0161 17.4467368,7.6891 C17.3647368,7.3621 20.6327368,0.2561 20.7137368,0.0111 C20.7957368,-0.2339 24.2267368,3.7681 27.3307368,4.1761 L25.7777368,9.8131 C25.7777368,9.8131 24.7977368,33.0131 24.7977368,37.2591 C24.7977368,41.5081 24.1447368,49.3491 13.9337368,50.9011 C3.72373678,52.4531 -5.91526322,45.9191 4.45873678,32.1961 C4.45873678,32.1961 4.37573678,41.9161 11.3207368,42.0791 C18.2627368,42.2431 20.0607368,39.5461 20.0607368,39.5461 L19.8967368,11.0381 Z" id="Fill-1388"></path>
                    <path d="M34.5197368,17.0835 C34.5197368,17.0835 33.8657368,14.5505 36.8887368,14.9595 C39.9107368,15.3675 41.7067368,25.6605 41.3807368,27.8665 C41.3807368,27.8665 46.7717368,14.5505 38.6027368,8.5065 C30.4347368,2.4615 26.1057368,10.5485 27.9027368,13.4885 C29.6997368,16.4295 34.5197368,17.0835 34.5197368,17.0835" id="Fill-1390"></path>
                    <path d="M44.5656368,4.667 L48.7056368,0 L49.2506368,33.094 C49.2506368,33.094 50.8566368,36.443 58.1266368,35.953 C65.3966368,35.462 65.3156368,34.946 64.1716368,33.911 C63.0266368,32.876 62.8096368,32.059 60.3596368,34.183 C60.3596368,34.183 56.6016368,30.682 54.2056368,30.391 C51.8096368,30.099 55.5666368,26.831 56.9836368,26.014 C58.3986368,25.197 63.3556368,22.202 69.0176368,26.994 C74.6816368,31.787 75.8796368,36.143 81.1626368,34.237 L77.7866368,45.168 C77.7866368,45.168 72.3946368,38.649 65.2056368,41.698 C58.0176368,44.748 56.2206368,46.98 48.5966368,43.06 C48.5966368,43.06 45.1106368,55.313 33.1306368,54.115 C21.1486368,52.917 24.4176368,37.668 29.5366368,31.46 C31.9326368,28.52 30.5706368,33.421 30.5166368,35.109 C30.4616368,36.798 29.4276368,43.005 33.4566368,44.966 C37.4866368,46.926 42.2236368,46.164 44.6216368,42.733 L44.5656368,4.667 Z" id="Fill-1392"></path>
                </g>
            </g>
        </g>
    </g>
</svg>